<svg width="17" height="22" viewBox="0 0 17 22" fill="none" xmlns="http://www.w3.org/2000/svg">
<path d="M0.246671 22H9.25768C13.9949 22 16.518 19.5284 16.518 16.1712C16.518 13.0508 14.2832 11.1662 11.8837 11.0529V10.8469C14.0773 10.3526 15.6941 8.79759 15.6941 6.3157C15.6941 3.15412 13.3461 0.90909 8.69127 0.90909H0.246671V22ZM4.70583 18.3544V12.7521H8.44411C10.5862 12.7521 11.9146 13.9879 11.9146 15.7283C11.9146 17.3143 10.8333 18.3544 8.34113 18.3544H4.70583ZM4.70583 9.73473V4.51349H8.09397C10.0712 4.51349 11.1938 5.53302 11.1938 7.05717C11.1938 8.7255 9.83438 9.73473 8.01159 9.73473H4.70583Z" fill="#9A5AF9"/>
</svg>
